<?xml version="1.0" encoding="UTF-8"?>
<svg id="a" data-name="Layer 1" xmlns="http://www.w3.org/2000/svg" viewBox="0 0 100 100">
  <defs>
    <style>
      .b {
        fill: #231f20;
      }
    </style>
  </defs>
  <path class="b" d="m56.53,84.11l3.68-5.69c2.19,2.32,4.57,3.48,7.14,3.48,4.68,0,7.02-2.2,7.02-6.6,0-2-.68-3.63-2.04-4.88s-3.19-1.88-5.49-1.88h-1.3v-6.06h1.1c4.23,0,6.34-1.76,6.34-5.3s-1.97-5.55-5.92-5.55c-2.04,0-4.02.96-5.95,2.89l-3.46-5.07c.89-1.09,2.28-2.05,4.16-2.86,1.89-.81,3.78-1.22,5.66-1.22,4.13,0,7.36.94,9.67,2.83,2.31,1.89,3.47,4.53,3.47,7.93,0,4.04-1.74,7.12-5.21,9.23,4.4,2.12,6.6,5.57,6.6,10.37,0,3.95-1.31,7-3.92,9.18-2.62,2.17-6.23,3.26-10.83,3.26-4.19,0-7.77-1.35-10.73-4.05Z"/>
  <path class="b" d="m25.16,50v-29.91l-8.44,5.07v-7.08c5.42-2.62,9.7-5.87,12.86-9.74h2.95v41.66h-7.36Z"/>
</svg>