<?xml version="1.0" encoding="UTF-8"?>
<svg id="a" data-name="Layer 1" xmlns="http://www.w3.org/2000/svg" viewBox="0 0 88.6 108.42">
  <defs>
    <style>
      .b {
        fill: #231f20;
      }
    </style>
  </defs>
  <path class="b" d="m80.41,92.79l-3.03-8.41h-14.22l-2.89,8.41h-8.18l16.54-42.06h3.23l16.68,42.06h-8.13Zm-10.17-29.37l-4.98,15.32h9.97l-4.98-15.32Z"/>
  <path class="b" d="m32.68,10.46l-3.03,6.09c-1.64-1.64-4.29-2.46-7.93-2.46-3.46,0-6.29,1.45-8.5,4.35-2.21,2.9-3.31,6.57-3.31,11s1.02,7.96,3.07,10.56c2.05,2.61,4.78,3.91,8.2,3.91,3.91,0,6.97-1.4,9.18-4.19l3.43,5.95c-3,3.19-7.4,4.79-13.2,4.79s-10.3-1.91-13.51-5.72c-3.21-3.81-4.81-9.02-4.81-15.6,0-6.14,1.78-11.27,5.34-15.39,3.56-4.12,8.11-6.19,13.66-6.19,4.76,0,8.56.97,11.41,2.92Z"/>
  <path class="b" d="m54.45,26.24h-3.78l-1.48,5.62h2.71v3.18h-3.55l-2.11,7.54h-3.43l2.07-7.54h-4.04l-2.07,7.54h-3.43l2.07-7.54h-2.46v-3.18h3.32l1.46-5.62h-2.76v-3.18h3.6l1.9-6.96h3.39l-1.85,6.96h4.03l1.9-6.96h3.39l-1.83,6.96h2.94v3.18Zm-7.12,0h-4.17l-1.48,5.62h4.13l1.51-5.62Z"/>
</svg>