<?xml version="1.0" encoding="UTF-8"?>
<svg style="fill: #010101; stroke: #010101; stroke-miterlimit: 4.39; stroke-width: .1px;" id="a" data-name="Layer 1" xmlns="http://www.w3.org/2000/svg" viewBox="0 0 100 100">
  <g id="b" data-name="g1876">
    <path id="c" data-name="path1947" d="m62.89,86.26c-.56,2.97,2.54,9.13,8.77,9.33,7.53.24,12.34-5.52,10.1-14.92l-11.24-51.89c-1.34-6.18-.33-9.53.38-11.52,1.91-5.33,6.67-7.52,7.83-5.82.66.97,2.26,5.53-2.29,13.68-3.55,6.36-20.09,14.7-21.3,29.62-1.05,12.98,12.53,22.56,24.26,18.8,7.78-2.5,11.8-14.32,6.98-20.41-12.72-16.08-33.11,8.53-13.35,15.27-2.15-1.69-3.61-3-3.89-4.6-2.65-15.57,20.76-11.46,14.45,3.31-2.59,6.08-13.07,7.25-19.04,1.83-5-4.54-7.22-13.29-1.65-19.57,7.54-8.5,16.43-16.14,18.8-27.78,2.79-13.77-6.33-24.5-12.1-10.96-1.94,4.54-2.66,9.11-.8,17.85l11.23,52.99c.8,3.79.27,9.01-3.28,11.41-1.75,1.19-7.96,2.01-9.48-.83"/>
    <path id="d" data-name="path4608" d="m62.81,86.71c.06-2.98,2.47-5.34,5.4-5.29s5.25,2.51,5.19,5.49c-.06,2.98-2.47,5.34-5.4,5.29-2.92-.05-5.25-2.51-5.19-5.49Z"/>
  </g>
</svg>