<?xml version="1.0" encoding="UTF-8"?><svg id="a" xmlns="http://www.w3.org/2000/svg" xmlns:xlink="http://www.w3.org/1999/xlink" viewBox="0 0 512 512"><defs><style>.d{fill:#825d2f;}.d,.e{stroke-width:0px;}.f{mask:url(#b);}.g{filter:url(#c);}</style><filter id="c" x="13.04" y="13.04" width="503.16" height="485.92" color-interpolation-filters="sRGB" filterUnits="userSpaceOnUse"><feFlood flood-color="#fff" result="bg"/><feBlend in="SourceGraphic" in2="bg"/></filter><mask id="b" x="13.04" y="13.04" width="503.16" height="485.92" maskUnits="userSpaceOnUse"><g class="g"><path class="e" d="m83.4,209.67h53.02c3.59,12.38,14.99,21.44,28.53,21.44s24.94-9.06,28.53-21.44h145.91c3.59,12.38,14.99,21.44,28.53,21.44s24.94-9.06,28.53-21.44h119.76v-16.93h-119.85c-3.7-12.2-15.03-21.08-28.44-21.08s-24.73,8.88-28.44,21.08h-146.09c-3.7-12.2-15.03-21.08-28.44-21.08s-24.73,8.88-28.44,21.08h-53.11v-92.29h53.02c3.59,12.38,14.99,21.44,28.53,21.44s24.94-9.06,28.53-21.44h145.96c3.65,12.29,15.01,21.26,28.48,21.26s24.83-8.97,28.48-21.26h100.15v-16.94h-100.15c-3.65-12.29-15.01-21.26-28.48-21.26s-24.83,8.97-28.48,21.26h-146.05c-3.71-12.2-15.03-21.07-28.44-21.07s-24.73,8.88-28.44,21.07H53.86v344.96h82.65c3.71,12.2,15.03,21.07,28.44,21.07s24.73-8.88,28.44-21.07h307.54v-17.66H193.27c-3.82-12.01-15.05-20.71-28.32-20.71s-24.51,8.7-28.32,20.71h-53.23v-91.93h53.02c3.59,12.38,14.99,21.44,28.53,21.44s24.94-9.06,28.53-21.44h146c3.7,12.2,15.03,21.08,28.44,21.08s24.73-8.88,28.44-21.08h113.75v-16.93h-113.66c-3.59-12.38-14.99-21.44-28.53-21.44s-24.94,9.06-28.53,21.44h-146c-3.7-12.2-15.03-21.08-28.44-21.08s-24.73,8.88-28.44,21.08h-53.11v-92.29Z"/></g></mask></defs><g class="f"><circle class="d" cx="256" cy="256" r="242.96"/></g></svg>