<?xml version="1.0" encoding="UTF-8"?><svg id="a" xmlns="http://www.w3.org/2000/svg" xmlns:xlink="http://www.w3.org/1999/xlink" viewBox="0 0 512 512"><defs><style>.d{fill:#825d2f;}.d,.e,.f{stroke-width:0px;}.f{fill:#110a00;}.g{mask:url(#b);}.h{filter:url(#c);}</style><filter id="c" x="110.07" y="110.07" width="302.21" height="291.86" color-interpolation-filters="sRGB" filterUnits="userSpaceOnUse"><feFlood flood-color="#fff" result="bg"/><feBlend in="SourceGraphic" in2="bg"/></filter><mask id="b" x="110.07" y="110.07" width="302.21" height="291.86" maskUnits="userSpaceOnUse"><g class="h"><path class="e" d="m152.33,228.17h31.85c2.16,7.44,9,12.88,17.14,12.88s14.98-5.44,17.14-12.88h87.64c2.16,7.44,9,12.88,17.14,12.88s14.98-5.44,17.14-12.88h71.93v-10.17h-71.99c-2.22-7.33-9.03-12.66-17.08-12.66s-14.85,5.33-17.08,12.66h-87.75c-2.22-7.33-9.03-12.66-17.08-12.66s-14.85,5.33-17.08,12.66h-31.9v-55.43h31.85c2.16,7.44,9,12.88,17.14,12.88s14.98-5.44,17.14-12.88h87.66c2.19,7.38,9.02,12.77,17.11,12.77s14.92-5.39,17.11-12.77h60.15v-10.17h-60.15c-2.19-7.38-9.02-12.77-17.11-12.77s-14.92,5.39-17.11,12.77h-87.72c-2.23-7.32-9.03-12.66-17.08-12.66s-14.85,5.33-17.08,12.66h-49.64v207.19h49.64c2.23,7.32,9.03,12.66,17.08,12.66s14.85-5.33,17.08-12.66h184.72v-10.61h-184.78c-2.29-7.21-9.04-12.44-17.01-12.44s-14.72,5.23-17.01,12.44h-31.97v-55.21h31.85c2.16,7.44,9,12.88,17.14,12.88s14.98-5.44,17.14-12.88h87.69c2.23,7.33,9.03,12.66,17.08,12.66s14.85-5.33,17.08-12.66h68.32v-10.17h-68.27c-2.16-7.44-9-12.88-17.14-12.88s-14.98,5.44-17.14,12.88h-87.69c-2.22-7.33-9.03-12.66-17.08-12.66s-14.85,5.33-17.08,12.66h-31.9v-55.43Z"/></g></mask></defs><rect class="f" width="512" height="512"/><g class="g"><circle class="d" cx="256" cy="256" r="145.93"/></g></svg>