<?xml version="1.0" standalone="no"?>
<!DOCTYPE svg PUBLIC "-//W3C//DTD SVG 20010904//EN"
 "http://www.w3.org/TR/2001/REC-SVG-20010904/DTD/svg10.dtd">
<svg version="1.0" xmlns="http://www.w3.org/2000/svg"
 width="700.000000pt" height="700.000000pt" viewBox="0 0 700.000000 700.000000"
 preserveAspectRatio="xMidYMid meet">
<metadata>
Created by potrace 1.14, written by Peter Selinger 2001-2017
</metadata>
<g transform="translate(0.000000,700.000000) scale(0.100000,-0.100000)"
fill="#000000" stroke="none">
<path d="M3259 6816 c-2 -2 -35 -6 -74 -10 -634 -56 -1258 -310 -1770 -721
-96 -77 -245 -213 -245 -223 0 -6 397 -7 655 -3 40 1 42 3 67 59 45 97 165
195 268 217 186 41 379 -51 459 -218 l28 -59 979 0 c539 1 987 1 996 1 10 1
26 22 41 55 63 137 198 225 354 232 157 6 301 -79 373 -221 18 -36 38 -65 44
-66 41 -3 389 1 393 4 2 3 -17 25 -44 50 -195 181 -371 313 -615 460 -88 53
-338 176 -413 203 -27 9 -54 21 -60 24 -5 4 -28 13 -50 19 -22 7 -49 16 -60
21 -54 23 -222 70 -370 104 -115 26 -126 28 -265 46 -47 6 -96 14 -110 17 -27
6 -575 14 -581 9z"/>
<path d="M1142 4996 l3 -631 358 0 359 0 26 55 c38 79 135 172 208 200 75 28
88 31 150 31 157 1 299 -82 366 -215 17 -34 32 -63 35 -66 2 -3 452 -5 1000
-5 l995 0 9 25 c20 53 46 93 91 139 197 199 518 148 651 -104 l32 -60 633 0
c349 0 638 2 642 5 13 8 -100 337 -165 481 -118 259 -269 509 -430 710 l-53
65 -315 0 -314 0 -28 -57 c-145 -305 -580 -307 -729 -2 l-29 59 -994 0 -994
-1 -29 -60 c-70 -146 -226 -237 -391 -229 -95 5 -209 58 -271 127 -29 32 -76
110 -83 138 l-6 26 -365 -1 -364 0 2 -630z"/>
<path d="M699 5289 c-13 -23 -34 -58 -46 -78 -70 -113 -148 -270 -238 -476
-68 -157 -161 -492 -190 -680 -3 -22 -10 -69 -16 -105 -19 -119 -24 -213 -24
-450 0 -239 11 -413 30 -498 3 -13 8 -43 11 -65 10 -78 72 -332 109 -447 53
-163 106 -294 185 -455 59 -121 186 -345 209 -367 4 -5 7 818 7 1827 0 1009
-3 1835 -6 1835 -4 0 -17 -19 -31 -41z"/>
<path d="M1157 4132 c-16 -3 -17 -52 -17 -633 l0 -630 363 2 362 1 24 55 c30
67 112 153 178 186 122 61 259 60 381 -2 61 -31 138 -112 170 -179 l27 -57
996 -2 996 -2 22 48 c97 216 344 305 556 200 69 -34 148 -116 181 -187 l27
-60 668 -1 c632 -2 668 -1 672 16 5 17 10 46 23 127 3 21 7 47 9 57 26 135 27
711 1 844 -2 11 -6 43 -10 70 -4 28 -11 73 -17 100 l-9 50 -653 -2 c-778 -1
-697 1 -697 -20 0 -33 -59 -121 -113 -168 -73 -65 -152 -97 -247 -100 -169 -7
-306 74 -384 226 l-32 63 -975 0 c-536 1 -984 -1 -996 -3 -12 -1 -24 -13 -27
-25 -11 -44 -86 -146 -133 -180 -211 -156 -502 -85 -614 149 -13 28 -25 52
-26 54 -4 5 -681 8 -706 3z"/>
<path d="M1140 2012 l0 -628 363 0 362 0 28 57 c64 127 191 213 331 223 161
12 320 -78 393 -223 l29 -57 1709 0 1709 1 58 75 c256 329 457 725 572 1128
l15 52 -644 0 -644 0 -24 -52 c-64 -138 -202 -229 -356 -233 -161 -5 -311 87
-378 233 l-24 52 -998 0 -997 0 -13 -37 c-16 -44 -67 -117 -108 -153 -136
-121 -347 -133 -501 -28 -53 37 -125 127 -142 179 l-13 39 -364 0 -363 0 0
-628z"/>
<path d="M1175 1139 c-8 -12 196 -195 312 -280 32 -23 60 -45 63 -49 12 -15
245 -163 335 -212 98 -55 308 -158 321 -158 3 0 22 -7 42 -16 21 -9 46 -20 57
-25 127 -54 463 -146 630 -173 17 -2 50 -8 75 -12 223 -35 694 -41 900 -11 14
2 50 7 80 11 72 9 235 43 330 68 41 10 84 21 94 23 11 3 63 19 115 36 466 154
891 405 1233 729 l80 75 -1554 -2 c-854 -1 -1573 -2 -1598 -3 -45 0 -45 0 -73
-59 -35 -72 -101 -140 -177 -180 -196 -105 -451 -20 -548 181 -19 41 -33 58
-47 58 -123 4 -668 4 -670 -1z"/>
</g>
</svg>
